<?xml version="1.0" encoding="UTF-8"?>
<svg width="340px" height="170px" viewBox="0 0 340 170" version="1.1" xmlns="http://www.w3.org/2000/svg" xmlns:xlink="http://www.w3.org/1999/xlink">
    <title>bg-empty-map</title>
    <defs>
        <rect id="path-1" x="0" y="0" width="340" height="170"></rect>
    </defs>
    <g id="Editor-GTFS" stroke="none" stroke-width="1" fill="none" fill-rule="evenodd">
        <g id="Home-GTFS" transform="translate(-135.000000, -250.000000)">
            <g id="bg-empty-map" transform="translate(135.000000, 250.000000)">
                <mask id="mask-2" fill="white">
                    <use xlink:href="#path-1"></use>
                </mask>
                <use id="Rectangle" fill="#ECEFF0" xlink:href="#path-1"></use>
                <polyline id="Path-3" stroke="#FFFFFF" stroke-width="5" mask="url(#mask-2)" points="9 7 135 90 255 90 255 174 340 116"></polyline>
                <line x1="0" y1="134" x2="105" y2="0" id="Path-4" stroke="#FFFFFF" stroke-width="4" stroke-linecap="square" stroke-linejoin="round" mask="url(#mask-2)"></line>
                <polyline id="Path-5" stroke="#FFFFFF" stroke-width="7" stroke-linecap="square" stroke-linejoin="round" mask="url(#mask-2)" points="0 170 84 143 135 90 199 0"></polyline>
                <polyline id="Path-6" stroke="#FFFFFF" stroke-width="6" stroke-linecap="square" stroke-linejoin="round" mask="url(#mask-2)" points="333 0 255 90 225 125 202 125 161 170"></polyline>
                <polyline id="Path-7" stroke="#FFFFFF" stroke-width="4" stroke-linecap="square" stroke-linejoin="round" mask="url(#mask-2)" points="0 67 84 143 170 160 231 170"></polyline>
                <path d="M65,0 L78,10 L170,42 L251,46 C259.666667,38.6666667 265.666667,34 269,32 C274,29 329,52 329,56 C329,58.6666667 329,65.3333333 329,76 L340,85" id="Path-8" stroke="#FFFFFF" stroke-width="4" stroke-linecap="square" stroke-linejoin="round" mask="url(#mask-2)"></path>
                <path d="M251,46 C251,54 254,64 258,67 C262,70 310,90 313,90 C315,90 320.333333,85.3333333 329,76" id="Path-9" stroke="#FFFFFF" stroke-width="4" stroke-linecap="square" stroke-linejoin="round" mask="url(#mask-2)"></path>
                <path d="M170,101.976562 L171.125,100.78125 C171.828125,99.9375 172.683594,98.8007812 173.691406,97.3710938 C174.699219,95.9414062 175.71875,94.40625 176.75,92.765625 C177.78125,91.125 178.660156,89.3671875 179.386719,87.4921875 C180.113281,85.6171875 180.476562,83.953125 180.476562,82.5 C180.476562,79.59375 179.457031,77.1210938 177.417969,75.0820312 C175.378906,73.0429688 172.90625,72.0234375 170,72.0234375 C167.09375,72.0234375 164.609375,73.0546875 162.546875,75.1171875 C160.53125,77.1328125 159.523438,79.59375 159.523438,82.5 C159.523438,83.953125 159.898438,85.640625 160.648438,87.5625 C161.398438,89.484375 162.230469,91.2070312 163.144531,92.7304688 C164.058594,94.2539062 165.125,95.8242188 166.34375,97.4414062 C167.5625,99.0585938 168.40625,100.136719 168.875,100.675781 C169.34375,101.214844 169.71875,101.648438 170,101.976562 L170,101.976562 Z M170,86.2265625 C168.96875,86.2265625 168.078125,85.875 167.328125,85.171875 C166.625,84.421875 166.273438,83.53125 166.273438,82.5 C166.273438,81.46875 166.636719,80.5898438 167.363281,79.8632812 C168.089844,79.1367188 168.96875,78.7734375 170,78.7734375 C171.03125,78.7734375 171.910156,79.1367188 172.636719,79.8632812 C173.363281,80.5898438 173.726562,81.46875 173.726562,82.5 C173.726562,83.53125 173.363281,84.4101562 172.636719,85.1367188 C171.910156,85.8632812 171.03125,86.2265625 170,86.2265625 Z M170,101.976562 L171.125,100.78125 C171.828125,99.9375 172.683594,98.8007812 173.691406,97.3710938 C174.699219,95.9414062 175.71875,94.40625 176.75,92.765625 C177.78125,91.125 178.660156,89.3671875 179.386719,87.4921875 C180.113281,85.6171875 180.476562,83.953125 180.476562,82.5 C180.476562,79.59375 179.457031,77.1210938 177.417969,75.0820312 C175.378906,73.0429688 172.90625,72.0234375 170,72.0234375 C167.09375,72.0234375 164.609375,73.0546875 162.546875,75.1171875 C160.53125,77.1328125 159.523438,79.59375 159.523438,82.5 C159.523438,83.953125 159.898438,85.640625 160.648438,87.5625 C161.398438,89.484375 162.230469,91.2070312 163.144531,92.7304688 C164.058594,94.2539062 165.125,95.8242188 166.34375,97.4414062 C167.5625,99.0585938 168.40625,100.136719 168.875,100.675781 C169.34375,101.214844 169.71875,101.648438 170,101.976562 L170,101.976562 Z M170,86.2265625 C168.96875,86.2265625 168.078125,85.875 167.328125,85.171875 C166.625,84.421875 166.273438,83.53125 166.273438,82.5 C166.273438,81.46875 166.636719,80.5898438 167.363281,79.8632812 C168.089844,79.1367188 168.96875,78.7734375 170,78.7734375 C171.03125,78.7734375 171.910156,79.1367188 172.636719,79.8632812 C173.363281,80.5898438 173.726562,81.46875 173.726562,82.5 C173.726562,83.53125 173.363281,84.4101562 172.636719,85.1367188 C171.910156,85.8632812 171.03125,86.2265625 170,86.2265625 Z" id="llocation_on" fill="#AAB9BE" fill-rule="nonzero" mask="url(#mask-2)"></path>
                <polygon id="Path-10" fill="#D4DDE1" mask="url(#mask-2)" points="84 140 130 90 69 50 35 95"></polygon>
                <path d="M269,70 L294,41 C280,35.6666667 272,33.3333333 270,34 C268,34.6666667 262.333333,39 253,47 C253.666667,56.3333333 255.666667,62.3333333 259,65 C262.333333,67.6666667 265.666667,69.3333333 269,70 Z" id="Path-11" fill="#D4DDE1" mask="url(#mask-2)"></path>
                <path d="M300,43 L274,73 C297.333333,82.3333333 310.333333,87.3333333 313,88 C315.666667,88.6666667 320.333333,84.3333333 327,75 C327,63 327,56.6666667 327,56 C327,55.3333333 318,51 300,43 Z" id="Path-12" fill="#D4DDE1" mask="url(#mask-2)"></path>
            </g>
        </g>
    </g>
</svg>