<?xml version="1.0" encoding="UTF-8"?>
<svg width="162px" height="70px" viewBox="0 0 162 70" version="1.1" xmlns="http://www.w3.org/2000/svg" xmlns:xlink="http://www.w3.org/1999/xlink">
    <title>Slice 1</title>
    <g id="Page-1" stroke="none" stroke-width="1" fill="none" fill-rule="evenodd">
        <g id="logo" transform="translate(10.000000, 11.000000)">
            <path d="M63.7783203,42.3320312 C66.788737,42.3320312 69.0465495,41.1754557 70.5517578,38.8623047 L70.5517578,38.8623047 L68.6757812,37.4013672 C68.1113281,38.1318359 67.4527995,38.7184245 66.7001953,39.1611328 C65.9475911,39.6038411 65.0289714,39.8251953 63.9443359,39.8251953 C62.4169922,39.8251953 61.1580404,39.2801107 60.1674805,38.1899414 C59.1769206,37.0997721 58.6595052,35.6692708 58.6152344,33.8984375 L58.6152344,33.8984375 L70.7841797,33.8984375 L70.7841797,32.6201172 C70.7841797,29.7535807 70.1367188,27.5511068 68.8417969,26.0126953 C67.546875,24.4742839 65.7317708,23.7050781 63.3964844,23.7050781 C61.96875,23.7050781 60.6433919,24.1007487 59.4204102,24.8920898 C58.1974284,25.683431 57.2456055,26.7791341 56.5649414,28.1791992 C55.8842773,29.5792643 55.5439453,31.1702474 55.5439453,32.9521484 L55.5439453,32.9521484 L55.5439453,33.5166016 C55.5439453,36.194987 56.3076172,38.3338216 57.8349609,39.9331055 C59.3623047,41.5323893 61.3434245,42.3320312 63.7783203,42.3320312 Z M67.7128906,31.375 L58.7148438,31.375 C58.9140625,29.7480469 59.4342448,28.4835612 60.2753906,27.581543 C61.1165365,26.6795247 62.156901,26.2285156 63.3964844,26.2285156 C64.6803385,26.2285156 65.6985677,26.6573893 66.4511719,27.5151367 C67.203776,28.3728841 67.624349,29.5820312 67.7128906,31.1425781 L67.7128906,31.1425781 L67.7128906,31.375 Z M81.11773,42.3320312 C83.3091363,42.3320312 85.0190972,42.4868974 86.2476128,40.981689 L86.3970269,42 L89.2192925,42 L89.2192925,19.9663729 L86.1480035,19.9663729 L86.1480035,25 C84.9194878,23.5611979 83.2537977,23.7050781 81.1509332,23.7050781 C79.0370009,23.7050781 77.3270399,24.543457 76.0210503,26.2202148 C74.7150608,27.8969727 74.062066,30.1132812 74.062066,32.8691406 L74.062066,33.1015625 C74.062066,35.8463542 74.7178277,38.0709635 76.0293511,39.7753906 C77.3408746,41.4798177 79.0370009,42.3320312 81.11773,42.3320312 Z M81.8814019,39.7255859 C80.398329,39.7255859 79.2362196,39.1500651 78.3950738,37.9990234 C77.553928,36.8479818 77.133355,35.2542318 77.133355,33.2177734 C77.133355,30.9378255 77.553928,29.2167969 78.3950738,28.0546875 C79.2362196,26.8925781 80.4093967,26.3115234 81.914605,26.3115234 C83.8182509,26.3115234 85.2293837,27.1582031 86.1480035,28.8515625 L86.1480035,28.8515625 L86.1480035,37.1025391 C85.2515191,38.851237 83.8293186,39.7255859 81.8814019,39.7255859 Z M97.7930773,42 L97.7930773,24.0371094 L94.7217882,24.0371094 L94.7217882,42 L97.7930773,42 Z M108.425456,42.3320313 C109.189128,42.3320313 109.974935,42.2213542 110.782878,42 L110.782878,39.5097656 C110.163086,39.6425781 109.676107,39.7089844 109.32194,39.7089844 C108.602539,39.7089844 108.093424,39.5291341 107.794596,39.1694336 C107.495768,38.8097331 107.346354,38.2701823 107.346354,37.5507812 L107.346354,26.4111328 L110.69987,26.4111328 L110.69987,24.0371094 L107.346354,24.0371094 L104.275065,24.0371094 L101.004557,24.0371094 L101.004557,26.4111328 L104.275065,26.4111328 L104.275065,37.5507812 C104.275065,39.078125 104.623698,40.2568359 105.320964,41.0869141 C106.018229,41.9169922 107.05306,42.3320313 108.425456,42.3320313 Z M121.797092,42.3320312 C123.412977,42.3320312 124.843479,41.9446615 126.088596,41.1699219 C127.333713,40.3951823 128.29107,39.3133138 128.960666,37.9243164 C129.630263,36.535319 129.965061,34.9664714 129.965061,33.2177734 L129.965061,33.2177734 L129.965061,33.0019531 C129.965061,30.1907552 129.20969,27.9384766 127.698947,26.2451172 C126.188205,24.5517578 124.209852,23.7050781 121.763889,23.7050781 C120.181207,23.7050781 118.772841,24.0869141 117.538791,24.8505859 C116.304742,25.6142578 115.341851,26.6988932 114.650119,28.1044922 C113.958388,29.5100911 113.612522,31.0927734 113.612522,32.8525391 L113.612522,32.8525391 L113.612522,33.0683594 C113.612522,35.8574219 114.367893,38.0986328 115.878635,39.7919922 C117.389377,41.4853516 119.362196,42.3320312 121.797092,42.3320312 Z M121.797092,39.8251953 C120.247613,39.8251953 119.010796,39.2220052 118.086643,38.015625 C117.162489,36.8092448 116.700412,35.2099609 116.700412,33.2177734 C116.700412,30.9710286 117.165256,29.2444661 118.094944,28.0380859 C119.024631,26.8317057 120.247613,26.2285156 121.763889,26.2285156 C123.313368,26.2285156 124.555718,26.8400065 125.49094,28.0629883 C126.426161,29.2859701 126.893772,30.882487 126.893772,32.8525391 C126.893772,35.055013 126.434462,36.7677409 125.515842,37.9907227 C124.597222,39.2137044 123.357639,39.8251953 121.797092,39.8251953 Z M137.360135,42 L137.413788,28.055557 C137.413788,27.5538774 137.486845,27.2040975 137.786896,27 C138.566318,26.4698287 140.006299,26.6767578 141.46072,26.6767578 C142.003038,26.6767578 142.498763,26.6767578 142.971463,26.6767578 L142.971463,26.5785847 L142.971463,24.0371094 C142.542131,24.0371094 142.165843,24.0371094 141.568187,24.0371094 C139.71988,24.0371094 138.232801,24.0371094 137.413788,24.0371094 L137.277127,25 C137.196756,24.8146196 137.147961,24.6652962 137.130741,24.5520298 C137.113522,24.4387634 137.104467,24.2671232 137.103576,24.0371094 L134.288845,24.0371094 L134.288845,42 L137.360135,42 Z" id="editor" stroke="#FFFFFF" fill="#FFFFFF" fill-rule="nonzero" stroke-linejoin="round"></path>
            <text id="transit" font-family="Roboto-Medium, Roboto" font-size="14" font-weight="400" line-spacing="20" letter-spacing="-0.3" fill="#FF8A3C">
                <tspan x="94" y="20">transit</tspan>
            </text>
            <g id="map" transform="translate(0.000000, -0.000000)" fill-rule="nonzero">
                <path d="M34.5302159,47.8064516 C33.6829007,47.8064516 32.9959156,47.1079543 32.9959156,46.2462116 L32.9959156,14.8624154 L7.40526799,14.8624154 C6.55795284,14.8624154 5.87096774,14.1639181 5.87096774,13.3021754 C5.87096774,12.4404328 6.55785226,11.7419355 7.40526799,11.7419355 L32.9959156,11.7419355 C34.6879308,11.7419355 36.0645161,13.1417942 36.0645161,14.8624154 L36.0645161,46.2461094 C36.0645161,47.107852 35.377531,47.8064516 34.5302159,47.8064516 L34.5302159,47.8064516 Z" id="Path" fill="#FFFFFF"></path>
                <path d="M48.0727764,32.7096774 L34.2539344,32.7096774 C33.4011206,32.7096774 32.7096774,32.0199918 32.7096774,31.1691204 C32.7096774,30.318249 33.4010194,29.6285634 34.2539344,29.6285634 L48.0727764,29.6285634 L48.0727764,2.3792667 C48.0727764,1.52849626 48.7641184,0.838709677 49.6170334,0.838709677 C50.4698471,0.838709677 51.1612903,1.52839526 51.1612903,2.3792667 L51.1612903,29.6286644 C51.1612903,31.3275794 49.7757717,32.7096774 48.0727764,32.7096774 L48.0727764,32.7096774 Z" id="Path" fill="#FFFFFF"></path>
                <path d="M34.5207602,42.7741935 L14.9631108,42.7741935 C14.1105737,42.7741935 13.4193548,42.0754268 13.4193548,41.2133517 L13.4193548,25.0447128 C13.4193548,24.1827401 14.1104725,23.483871 14.9631108,23.483871 C15.8156479,23.483871 16.5068668,24.1826378 16.5068668,25.0447128 L16.5068668,39.6526123 L34.5207602,39.6526123 C35.3732972,39.6526123 36.0645161,40.351379 36.0645161,41.2134541 C36.0645161,42.0755291 35.3732972,42.7741935 34.5207602,42.7741935 Z" id="Path" fill="#FFFFFF"></path>
                <circle id="Oval" fill="#F8C8A5" cx="49.9032258" cy="16.3548387" r="2.09677419"></circle>
                <circle id="Oval" fill="#DFF6FD" cx="34.8064516" cy="31.4516129" r="2.09677419"></circle>
                <circle id="Oval" fill="#8AD59A" cx="15.516129" cy="40.6774194" r="2.09677419"></circle>
                <path d="M34.7977215,36.0645161 C32.7232246,36.0695638 31.0322581,37.9864282 31.0322581,40.2276107 C31.0322581,41.1536218 31.0734286,41.1178246 33.9396887,48.0386855 C34.2748066,48.8478734 35.3384935,48.847016 35.6737106,48.0379353 C38.5782642,41.0282245 38.5806452,41.179773 38.5806452,40.141869 C38.5806452,37.8869677 36.8862065,36.0594892 34.7977215,36.0645161 Z" id="Path" fill="#CC8344"></path>
                <path d="M34.8064516,41.9354839 C34.1127917,41.9354839 33.5483871,41.3711011 33.5483871,40.6773705 C33.5483871,39.9836399 34.1127917,39.4193548 34.8064516,39.4193548 C35.5001115,39.4193548 36.0645161,39.9837376 36.0645161,40.6773705 C36.0645161,41.3711011 35.5001115,41.9354839 34.8064516,41.9354839 Z" id="Path" fill="#BAD6E5"></path>
                <path d="M7.12030213,0.838709677 C5.0458052,0.843421297 3.35483871,2.63249461 3.35483871,4.72426492 C3.35483871,5.58854188 3.3960092,5.55513118 6.26226932,12.0146011 C6.59738724,12.7698432 7.6610741,12.7690429 7.99629122,12.0139009 C10.9008449,5.47150438 10.9032258,5.6129497 10.9032258,4.64423928 C10.9032258,2.53956483 9.20878711,0.833918251 7.12030213,0.838709677 Z" id="Path" fill="#EB5569"></path>
                <path d="M7.12903226,6.70967742 C6.43537239,6.70967742 5.87096774,6.14529468 5.87096774,5.45156406 C5.87096774,4.75783343 6.43537239,4.19354839 7.12903226,4.19354839 C7.82269212,4.19354839 8.38709677,4.75793113 8.38709677,5.45156406 C8.38709677,6.14529468 7.82278982,6.70967742 7.12903226,6.70967742 Z" id="Path" fill="#F6B2BB"></path>
                <path d="M50.3225806,0.838709677 L29.4414031,0.838709677 C28.7308088,0.838709677 28.1104049,1.31096084 27.9327819,1.98668032 L22.2077837,23.777856 L1.55805748,23.777856 C0.697520294,23.777856 0,24.4631067 0,25.3082828 C0,26.1534589 0.697520294,26.8387097 1.55805748,26.8387097 L22.2077837,26.8387097 C23.6290745,26.8387097 24.8697802,25.8945083 25.2250263,24.5426681 L30.6484023,3.89946308 L50.3225806,3.89946308 L50.3225806,0.838709677 Z" id="Path" fill="#FFFFFF"></path>
                <g id="Group" transform="translate(0.838710, 0.000000)" fill="#FEE8C7">
                    <ellipse id="Oval" cx="25.9269378" cy="13.0872009" rx="1.98544798" ry="1.98804125"></ellipse>
                    <ellipse id="Oval" cx="28.9939936" cy="2.06366543" rx="1.98544798" ry="1.98804125"></ellipse>
                    <ellipse id="Oval" cx="2.016583" cy="25.6390649" rx="1.98544798" ry="1.98804125"></ellipse>
                </g>
                <circle id="Oval" fill="#DFFDDF" cx="14.6774194" cy="25.5806452" r="2.09677419"></circle>
                <circle id="Oval" fill="#EB5569" cx="49.9032258" cy="2.09677419" r="2.09677419"></circle>
                <path d="M34.6047202,36.0645161 C34.2434337,36.0653839 33.8937208,36.1197223 33.5608992,36.2183245 C35.2274052,36.7013681 36.449315,38.2743945 36.449315,40.1419414 C36.449315,41.1620454 36.4468126,41.033541 33.5483871,47.6837228 C33.5990611,47.8001163 33.6504649,47.9181174 33.7029114,48.0386907 C34.0551267,48.8478717 35.1730819,48.8470143 35.5254015,48.0379405 C38.578247,41.0282894 38.5806452,41.1798366 38.5806452,40.1419414 C38.5806452,37.8869522 36.7997578,36.0594892 34.6047202,36.0645161 Z" id="Path" fill="#B3733B"></path>
                <path d="M6.92730088,0.838709677 C6.56611857,0.839520047 6.21630141,0.890236299 5.88347983,0.98226579 C7.54998586,1.43311026 8.77189566,2.90128074 8.77189566,4.64433931 C8.77189566,5.59644442 8.76939324,5.47650598 5.87096774,11.683395 C5.9216417,11.7920298 5.97304554,11.9020651 6.02549205,12.0146011 C6.37770736,12.7698432 7.49566254,12.7690429 7.84798212,12.0139009 C10.9007234,5.47150438 10.9032258,5.6129497 10.9032258,4.64423928 C10.9032258,2.53956483 9.12233842,0.833918251 6.92730088,0.838709677 L6.92730088,0.838709677 Z" id="Path" fill="#E53950"></path>
            </g>
        </g>
    </g>
</svg>