<?xml version="1.0" encoding="UTF-8"?>
<svg width="85px" height="109px" viewBox="0 0 85 109" version="1.1" xmlns="http://www.w3.org/2000/svg" xmlns:xlink="http://www.w3.org/1999/xlink">
    <title>zip</title>
    <g id="Editor-GTFS" stroke="none" stroke-width="1" fill="none" fill-rule="evenodd">
        <g id="Nuevo-proyecto" transform="translate(-793.000000, -374.000000)" fill-rule="nonzero">
            <g id="Group-7" transform="translate(310.000000, 140.000000)">
                <g id="Group-2" transform="translate(350.000000, 0.000000)">
                    <g id="Group-4" transform="translate(65.000000, 234.000000)">
                        <g id="zip" transform="translate(68.000000, 0.000000)">
                            <path d="M59.8573864,0 L3.79215909,0 C2.23125,0 0.965909091,1.26534091 0.965909091,3.72068182 L0.965909091,106.25 C0.965909091,106.916477 2.23125,108.181818 3.79215909,108.181818 L81.2078409,108.181818 C82.76875,108.181818 84.0340909,106.916477 84.0340909,106.25 L84.0340909,25.0711364 C84.0340909,23.7265909 83.8544318,23.2938636 83.5376136,22.9751136 L61.0589773,0.496477273 C60.7402273,0.179659091 60.3075,0 59.8573864,0 Z" id="Path" fill="#F9EED7"></path>
                            <polygon id="Path" fill="#D6C8B0" points="60.8522727 0.291704545 60.8522727 23.1818182 83.7423864 23.1818182"></polygon>
                            <path d="M81.2078409,108.181818 L3.79215909,108.181818 C2.23125,108.181818 0.965909091,106.916477 0.965909091,105.355568 L0.965909091,75.3409091 L84.0340909,75.3409091 L84.0340909,105.355568 C84.0340909,106.916477 82.76875,108.181818 81.2078409,108.181818 Z" id="Path" fill="#556080"></path>
                            <path d="M37.2184091,82.9213636 L37.2184091,85.4829545 L27.9476136,99.4017045 L27.4202273,99.8247727 L37.2184091,99.8247727 L37.2184091,102.386364 L24.2771591,102.386364 L24.2771591,99.8247727 L33.5479545,85.9060227 L34.1023864,85.4829545 L24.2771591,85.4829545 L24.2771591,82.9213636 L37.2184091,82.9213636 Z M44.9553409,82.9213636 L44.9553409,102.386364 L41.7330682,102.386364 L41.7330682,82.9213636 L44.9553409,82.9213636 Z M55.3871591,82.9213636 C56.2139773,82.9213636 57.0330682,83.0527273 57.8425,83.3173864 C58.6519318,83.5820455 59.3782955,83.9780682 60.0215909,84.5054545 C60.6648864,85.0328409 61.1845455,85.6722727 61.5805682,86.4198864 C61.9765909,87.1675 62.1755682,88.0078409 62.1755682,88.9428409 C62.1755682,89.93 62.0075,90.8225 61.6732955,91.6242045 C61.3390909,92.4259091 60.8715909,93.1001136 60.2727273,93.6448864 C59.6738636,94.1896591 58.9513636,94.6127273 58.1071591,94.9121591 C57.2629545,95.2115909 56.3279545,95.3603409 55.3079545,95.3603409 L52.9569318,95.3603409 L52.9569318,102.386364 L49.78875,102.386364 L49.78875,82.9213636 L55.3871591,82.9213636 Z M55.335,85.3264773 L52.9588636,85.3264773 L52.9588636,93.0363636 L55.8643182,93.0363636 C56.2506818,93.0363636 56.6331818,92.9706818 57.01375,92.8373864 C57.3923864,92.7060227 57.7401136,92.4896591 58.0569318,92.1902273 C58.37375,91.8907955 58.62875,91.4735227 58.8219318,90.9364773 C59.0151136,90.3994318 59.1117045,89.7348864 59.1117045,88.9428409 C59.1117045,88.6260227 59.0672727,88.2589773 58.9803409,87.8475 C58.8914773,87.4340909 58.7118182,87.0380682 58.4394318,86.6594318 C58.1651136,86.2807955 57.7826136,85.9639773 57.29,85.7089773 C56.7973864,85.4539773 56.1444318,85.3264773 55.335,85.3264773 Z" id="Path-2" fill="#FFFFFF"></path>
                            <path d="M43.4659091,46.3636364 L43.4659091,42.5 L47.3295455,42.5 L47.3295455,38.6363636 L43.4659091,38.6363636 L43.4659091,34.7727273 L47.3295455,34.7727273 L47.3295455,30.9090909 L43.4659091,30.9090909 L43.4659091,27.0454545 L47.3295455,27.0454545 L47.3295455,23.1818182 L43.4659091,23.1818182 L43.4659091,19.3181818 L47.3295455,19.3181818 L47.3295455,15.4545455 L43.4659091,15.4545455 L43.4659091,11.5909091 L39.6022727,11.5909091 L39.6022727,15.4545455 L35.7386364,15.4545455 L35.7386364,19.3181818 L39.6022727,19.3181818 L39.6022727,23.1818182 L35.7386364,23.1818182 L35.7386364,27.0454545 L39.6022727,27.0454545 L39.6022727,30.9090909 L35.7386364,30.9090909 L35.7386364,34.7727273 L39.6022727,34.7727273 L39.6022727,38.6363636 L35.7386364,38.6363636 L35.7386364,42.5 L39.6022727,42.5 L39.6022727,46.3636364 L31.875,46.3636364 L31.875,56.0227273 C31.875,61.34875 36.2080682,65.6818182 41.5340909,65.6818182 C46.8601136,65.6818182 51.1931818,61.34875 51.1931818,56.0227273 L51.1931818,46.3636364 L43.4659091,46.3636364 Z M47.3295455,50.2272727 L47.3295455,56.0227273 C47.3295455,59.2179545 44.7293182,61.8181818 41.5340909,61.8181818 C38.3388636,61.8181818 35.7386364,59.2179545 35.7386364,56.0227273 L35.7386364,50.2272727 L47.3295455,50.2272727 Z" id="Shape" fill="#D6C8B0"></path>
                        </g>
                    </g>
                </g>
            </g>
        </g>
    </g>
</svg>