<?xml version="1.0" encoding="UTF-8"?>
<svg width="83px" height="103px" viewBox="0 0 83 103" version="1.1" xmlns="http://www.w3.org/2000/svg" xmlns:xlink="http://www.w3.org/1999/xlink">
    <title>Group 8</title>
    <g id="Editor-GTFS" stroke="none" stroke-width="1" fill="none" fill-rule="evenodd">
        <g id="Nuevo-proyecto" transform="translate(-444.000000, -371.000000)" fill-rule="nonzero">
            <g id="Group-7" transform="translate(310.000000, 140.000000)">
                <g id="Group-5" transform="translate(68.000000, 231.000000)">
                    <g id="Group-8" transform="translate(66.000000, 0.000000)">
                        <path d="M6.38461538,3.19230769 L76.6153846,3.19230769 C80.1412635,3.19230769 83,6.05104417 83,9.57692308 L83,95.7692308 C83,99.2951097 80.1412635,102.153846 76.6153846,102.153846 L6.38461538,102.153846 C2.85873648,102.153846 -7.10542736e-15,99.2951097 -7.10542736e-15,95.7692308 L-7.10542736e-15,9.57692308 C-7.10542736e-15,6.05104417 2.85873648,3.19230769 6.38461538,3.19230769 Z" id="Path" fill="#D6C8B0"></path>
                        <polygon id="Path" fill="#F9EED7" points="6.38461538 74.7448918 6.38461538 9.57692308 76.6153846 9.57692308 76.6153846 95.7692308 27.4089543 95.7692308"></polygon>
                        <polygon id="Path" fill="#E6D7BE" points="27.4089543 74.7448918 27.4089543 95.7692308 6.38461538 74.7448918"></polygon>
                        <path d="M25.5384615,12.7692308 L25.5384615,1.42108547e-14 L57.4615385,1.42108547e-14 L57.4615385,12.7692308 C57.4615385,16.2951097 54.602802,19.1538462 51.0769231,19.1538462 L31.9230769,19.1538462 C28.397198,19.1538462 25.5384615,16.2951097 25.5384615,12.7692308 Z" id="Path" fill="#556080"></path>
                    </g>
                </g>
            </g>
        </g>
    </g>
</svg>