<?xml version="1.0" encoding="UTF-8"?>
<svg width="43px" height="55px" viewBox="0 0 43 55" version="1.1" xmlns="http://www.w3.org/2000/svg" xmlns:xlink="http://www.w3.org/1999/xlink">
    <title>Group 9</title>
    <g id="Editor-GTFS" stroke="none" stroke-width="1" fill="none" fill-rule="evenodd">
        <g id="Nuevo-proyecto-Copy" transform="translate(-459.000000, -480.000000)">
            <g id="Group-9" transform="translate(459.000000, 480.000000)">
                <path d="M2,3 L29,3 L29,3 L40,14 L40,53 C40,54.1045695 39.1045695,55 38,55 L2,55 C0.8954305,55 1.3527075e-16,54.1045695 0,53 L0,5 C-1.3527075e-16,3.8954305 0.8954305,3 2,3 Z" id="Rectangle-Copy" fill-opacity="0.05" fill="#000000"></path>
                <path d="M5,0 L32,0 L32,0 L43,11 L43,50 C43,51.1045695 42.1045695,52 41,52 L5,52 C3.8954305,52 3,51.1045695 3,50 L3,2 C3,0.8954305 3.8954305,2.02906125e-16 5,0 Z" id="Rectangle" fill="#F9EED7"></path>
                <polygon id="Path" fill="#D6C8B0" fill-rule="nonzero" points="32 0 32 11 43 11"></polygon>
                <path d="M3,37 L43,37 L43,50 C43,51.1045695 42.1045695,52 41,52 L5,52 C3.8954305,52 3,51.1045695 3,50 L3,37 L3,37 Z" id="Rectangle" fill="#556080"></path>
                <path d="M20.1703846,40.1538462 L20.1703846,41.4066214 L15.6398601,48.2137447 L15.3821329,48.420651 L20.1703846,48.420651 L20.1703846,49.6734263 L13.8461538,49.6734263 L13.8461538,48.420651 L18.3766783,41.6135277 L18.6476224,41.4066214 L13.8461538,41.4066214 L13.8461538,40.1538462 L20.1703846,40.1538462 Z M23.9513287,40.1538462 L23.9513287,49.6734263 L22.3766434,49.6734263 L22.3766434,40.1538462 L23.9513287,40.1538462 Z M29.0492308,40.1538462 C29.4532867,40.1538462 29.8535664,40.218091 30.2491259,40.3475256 C30.6446853,40.4769601 30.9996503,40.6706396 31.314021,40.9285639 C31.6283916,41.1864882 31.8823427,41.4992096 32.0758741,41.8648386 C32.2694056,42.2304675 32.3666434,42.6414458 32.3666434,43.0987182 C32.3666434,43.5814996 32.2845105,44.0179869 32.1211888,44.4100697 C31.9578671,44.8021524 31.7294056,45.1318799 31.4367483,45.3983072 C31.1440909,45.6647345 30.791014,45.8716408 30.3784615,46.0180813 C29.9659091,46.1645219 29.508986,46.2372698 29.0105245,46.2372698 L27.8616084,46.2372698 L27.8616084,49.6734263 L26.3133566,49.6734263 L26.3133566,40.1538462 L29.0492308,40.1538462 Z M29.0237413,41.3300944 L27.8625524,41.3300944 L27.8625524,45.1007022 L29.2824126,45.1007022 C29.4712238,45.1007022 29.6581469,45.0685797 29.8441259,45.0033901 C30.0291608,44.9391452 30.1990909,44.8333301 30.3539161,44.6868896 C30.5087413,44.540449 30.6333566,44.336377 30.7277622,44.0737288 C30.8221678,43.8110806 30.8693706,43.4860771 30.8693706,43.0987182 C30.8693706,42.9437747 30.8476573,42.7642669 30.8051748,42.5630293 C30.7617483,42.3608469 30.673951,42.1671674 30.5408392,41.981991 C30.4067832,41.7968146 30.2198601,41.641871 29.9791259,41.5171604 C29.7383916,41.3924497 29.4193007,41.3300944 29.0237413,41.3300944 Z" id="Path-2" fill="#FFFFFF" fill-rule="nonzero"></path>
                <path d="M23.6643357,23.0059986 L23.6643357,21.1164432 L25.5524476,21.1164432 L25.5524476,19.2268878 L23.6643357,19.2268878 L23.6643357,17.3373324 L25.5524476,17.3373324 L25.5524476,15.447777 L23.6643357,15.447777 L23.6643357,13.5582216 L25.5524476,13.5582216 L25.5524476,11.6686662 L23.6643357,11.6686662 L23.6643357,9.7791108 L25.5524476,9.7791108 L25.5524476,7.8895554 L23.6643357,7.8895554 L23.6643357,6 L21.7762238,6 L21.7762238,7.8895554 L19.8881119,7.8895554 L19.8881119,9.7791108 L21.7762238,9.7791108 L21.7762238,11.6686662 L19.8881119,11.6686662 L19.8881119,13.5582216 L21.7762238,13.5582216 L21.7762238,15.447777 L19.8881119,15.447777 L19.8881119,17.3373324 L21.7762238,17.3373324 L21.7762238,19.2268878 L19.8881119,19.2268878 L19.8881119,21.1164432 L21.7762238,21.1164432 L21.7762238,23.0059986 L18,23.0059986 L18,27.7298871 C18,30.3346392 20.1175175,32.4537756 22.7202797,32.4537756 C25.323042,32.4537756 27.4405594,30.3346392 27.4405594,27.7298871 L27.4405594,23.0059986 L23.6643357,23.0059986 Z M25.5524476,24.895554 L25.5524476,27.7298871 C25.5524476,29.2925494 24.2817483,30.5642202 22.7202797,30.5642202 C21.1588112,30.5642202 19.8881119,29.2925494 19.8881119,27.7298871 L19.8881119,24.895554 L25.5524476,24.895554 Z" id="Shape" fill="#D6C8B0" fill-rule="nonzero"></path>
            </g>
        </g>
    </g>
</svg>