<?xml version="1.0" encoding="UTF-8"?>
<svg width="43px" height="55px" viewBox="0 0 43 55" version="1.1" xmlns="http://www.w3.org/2000/svg" xmlns:xlink="http://www.w3.org/1999/xlink">
    <title>Group 8</title>
    <g id="Editor-GTFS" stroke="none" stroke-width="1" fill="none" fill-rule="evenodd">
        <g id="Nuevo-proyecto-Copy" transform="translate(-399.000000, -480.000000)" fill-rule="nonzero">
            <g id="Group-8" transform="translate(399.000000, 480.000000)">
                <path d="M3.23076923,5 L38.7692308,5 C40.5534105,5 42,6.44436744 42,8.22580645 L42,51.7741935 C42,53.5556326 40.5534105,55 38.7692308,55 L3.23076923,55 C1.44658954,55 0,53.5556326 0,51.7741935 L0,8.22580645 C0,6.44436744 1.44658954,5 3.23076923,5 Z" id="Path" fill-opacity="0.05" fill="#000000"></path>
                <path d="M6.07692308,2 L39.9230769,2 C41.6222957,2 43,3.44436744 43,5.22580645 L43,48.7741935 C43,50.5556326 41.6222957,52 39.9230769,52 L6.07692308,52 C4.37770433,52 3,50.5556326 3,48.7741935 L3,5.22580645 C3,3.44436744 4.37770433,2 6.07692308,2 Z" id="Path-Copy" fill="#D6C8B0"></path>
                <polygon id="Path" fill="#F9EED7" points="6 38 6 5 40 5 40 49 17 49"></polygon>
                <polygon id="Path" fill="#E6D7BE" points="17 38 17 49 6 38"></polygon>
                <path d="M15,6.46153846 L15,0 L30.9230769,0 L30.9230769,6.46153846 C30.9230769,8.24571815 29.4971529,9.69230769 27.7384615,9.69230769 L18.1846154,9.69230769 C16.425924,9.69230769 15,8.24571815 15,6.46153846 Z" id="Path" fill="#556080"></path>
            </g>
        </g>
    </g>
</svg>